# xmcd
#
# Track frame offsets:
#	150
#	17681
#	32136
#	55776
#	67395
#	79396
#	91638
#	106918
#	121836
#	134742
#	145430
#	162854
#	179184
#	194760
#	209259
#	221426
#	233489
#	247453
#
# Disc length: 3507 seconds
#
# Revision: 0
# Processed by: cddbd v1.5.2PL0 Copyright (c) Steve Scherf et al.
# Submitted via: audiograbber 1.83.01
#
DISCID=160db112
DTITLE=Sampler - Ultimate Country
DYEAR=2015
DGENRE=Country - Western
TTITLE0=Jimmy Buffett and Alan Jackson - It's five o' clock somewhere
TTITLE1=Miranda Lambert - Gunpowder and Lead
TTITLE2=Brad Paisley - This is Country music
TTITLE3=Willie Nelson - On the road again
TTITLE4=Johnny Cash - Ring of fire
TTITLE5=Dolly Parton - Jolene
TTITLE6=Billy Ray Cyrus - Crazy 'bout you baby
TTITLE7=Pistol Annies - Hell on heels
TTITLE8=Gretchen Wilson - California girls
TTITLE9=The Statler Brothers - Flowers on the wall
TTITLE10=Ricky Skaggs - Country Boy
TTITLE11=Charlie Daniels - The devil went down to Georgia
TTITLE12=Chet and Mark Knopfler Atkins - Yakety Axe
TTITLE13=John Denver - Take me home, Country Roads
TTITLE14=Charlie Rich - The most beautiful girl
TTITLE15=Tammy Wynette - Stand by your man
TTITLE16=George Jones and Tammy Wynette - Golden ring - weding ring
TTITLE17=Smokie - Living next door to Alice
EXTD=
EXTT0=
EXTT1=
EXTT2=
EXTT3=
EXTT4=
EXTT5=
EXTT6=
EXTT7=
EXTT8=
EXTT9=
EXTT10=
EXTT11=
EXTT12=
EXTT13=
EXTT14=
EXTT15=
EXTT16=
EXTT17=
PLAYORDER=
